HIERARCHY
ROOT f_avg_Pelvis
{
	OFFSET 	 -0.087631	 90.931465	 2.782112
	CHANNELS 6 Xposition Yposition Zposition Xrotation Yrotation Zrotation 
	JOINT f_avg_L_Hip
	{
		OFFSET 	 7.136119	 -8.958382	 -0.804619
		CHANNELS 3 Xrotation Yrotation Zrotation 
		JOINT f_avg_L_Knee
		{
			OFFSET 	 3.066892	 -36.42094	 -0.668891
			CHANNELS 3 Xrotation Yrotation Zrotation 
			JOINT f_avg_L_Ankle
			{
				OFFSET 	 -1.155389	 -38.334843	 -4.350161
				CHANNELS 3 Xrotation Yrotation Zrotation 
				JOINT f_avg_L_Foot
				{
					OFFSET 	 2.333767	 -5.464483	 11.437012
					CHANNELS 3 Xrotation Yrotation Zrotation 
					End Site
					{
						OFFSET 	 0.0	 12.888455	 0.0
					}
				}
			}
		}
	}
	JOINT f_avg_R_Hip
	{
		OFFSET 	 -6.901202	 -8.896049	 -0.479568
		CHANNELS 3 Xrotation Yrotation Zrotation 
		JOINT f_avg_R_Knee
		{
			OFFSET 	 -3.615239	 -37.065044	 -0.918532
			CHANNELS 3 Xrotation Yrotation Zrotation 
			JOINT f_avg_R_Ankle
			{
				OFFSET 	 1.402864	 -38.363781	 -4.18916
				CHANNELS 3 Xrotation Yrotation Zrotation 
				JOINT f_avg_R_Foot
				{
					OFFSET 	 -2.204322	 -4.640955	 11.789971
					CHANNELS 3 Xrotation Yrotation Zrotation 
					End Site
					{
						OFFSET 	 0.0	 12.860828	 0.0
					}
				}
			}
		}
	}
	JOINT f_avg_Spine1
	{
		OFFSET 	 -0.250821	 10.325684	 -2.218514
		CHANNELS 3 Xrotation Yrotation Zrotation 
		JOINT f_avg_Spine2
		{
			OFFSET 	 0.358096	 12.765762	 -0.171301
			CHANNELS 3 Xrotation Yrotation Zrotation 
			JOINT f_avg_Spine3
			{
				OFFSET 	 0.202718	 4.907227	 2.786721
				CHANNELS 3 Xrotation Yrotation Zrotation 
				JOINT f_avg_Neck
				{
					OFFSET 	 -0.196263	 20.824318	 -4.976548
					CHANNELS 3 Xrotation Yrotation Zrotation 
					JOINT f_avg_Head
					{
						OFFSET 	 0.351716	 6.232208	 5.020526
						CHANNELS 3 Xrotation Yrotation Zrotation 
						End Site
						{
							OFFSET 	 0.0	 8.010605	 0.0
						}
					}
				}
				JOINT f_avg_L_Collar
				{
					OFFSET 	 7.529828	 11.778038	 -3.687482
					CHANNELS 3 Xrotation Yrotation Zrotation 
					JOINT f_avg_L_Shoulder
					{
						OFFSET 	 8.531712	 3.173904	 -0.729284
						CHANNELS 3 Xrotation Yrotation Zrotation 
						JOINT f_avg_L_Elbow
						{
							OFFSET 	 25.124733	 -1.196671	 -2.751844
							CHANNELS 3 Xrotation Yrotation Zrotation 
							JOINT f_avg_L_Wrist
							{
								OFFSET 	 23.801907	 0.900681	 0.004374
								CHANNELS 3 Xrotation Yrotation Zrotation 
								JOINT f_avg_L_Hand
								{
									OFFSET 	 7.966774	 -0.968246	 -1.320559
									CHANNELS 3 Xrotation Yrotation Zrotation 
									End Site
									{
										OFFSET 	 0.0	 8.133316	 0.0
									}
								}
							}
						}
					}
				}
				JOINT f_avg_R_Collar
				{
					OFFSET 	 -7.703282	 11.560616	 -4.181066
					CHANNELS 3 Xrotation Yrotation Zrotation 
					JOINT f_avg_R_Shoulder
					{
						OFFSET 	 -8.920287	 3.278488	 -0.980219
						CHANNELS 3 Xrotation Yrotation Zrotation 
						JOINT f_avg_R_Elbow
						{
							OFFSET 	 -24.598969	 -1.315247	 -2.016171
							CHANNELS 3 Xrotation Yrotation Zrotation 
							JOINT f_avg_R_Wrist
							{
								OFFSET 	 -24.517677	 0.862198	 -0.353152
								CHANNELS 3 Xrotation Yrotation Zrotation 
								JOINT f_avg_R_Hand
								{
									OFFSET 	 -8.040024	 -0.724792	 -1.041933
									CHANNELS 3 Xrotation Yrotation Zrotation 
									End Site
									{
										OFFSET 	 0.0	 8.139587	 0.0
									}
								}
							}
						}
					}
				}
			}
		}
	}
}

MOTION
Frames: 7
Frame Time: 0.041667
22.191327190969822 61.910829651651696 -34.13947133358662 -5.757610421994956 -33.46182344091296 -11.724454503600443 -1.8174590129707453 5.835646541188406 11.871702812389314 21.157642145512202 -5.558435321693599 -0.9825364765307912 1.864208501812747 10.170344031565254 -12.605971432029524 -11.626558310425303 -0.6664219035189626 14.97100673517788 -10.068672319979362 -0.7636442958115376 -1.237479353070525 10.844167235408824 4.040104834481605 2.7372237943378708 3.575525971493597 -10.698994990542653 12.242701390966579 -6.270278915762369 -0.7055716363045081 -18.898908114671094 6.960805537774443 -2.4148257438597076 -4.173073022118851 -2.0410145824615578 -2.2872633993101497 -4.417658107139165 4.807938381765227 -4.794139231511142 -2.7542131158721883 -1.9459135349830512 -7.699867233598199 -0.2980478757416529 5.24538853128201 0.5758648417011157 2.894394349477143 -2.962017294549444 1.178392659387073 -8.461946871591659 -9.548284403266686 -20.13509806654502 -47.00293297913154 104.6261538661535 -69.79703279139014 131.53608717779142 -8.784091982020433 -9.072711222550124 8.078054570703486 5.386621197194984e-07 5.294079034730887e-07 -1.041746953163744e-06 -3.733965391647454 -8.529109727732635 -1.1053150759772696 -5.004369534400016 -2.8156834365793557 27.44752670785869 53.55367218845914 75.32700444502473 -86.78314974605398 -5.304131695918347 7.780981490756015 -6.3771916303560765 -4.476616918630762e-07 -8.342904459990689e-07 -3.5585597915018835e-07
18.12206586174476 59.46259323262854 -36.24667827751024 -8.156350478462748 -43.03057406092871 -12.906962696646405 -5.262628716241641 4.526954677203034 13.80305025043441 34.53250821135906 -6.259034821332491 -0.7427136692850637 0.45822615081566237 10.07686415744852 -12.203307946938569 -13.748510985323858 -1.0307818926390873 15.006441077523842 -12.930118330626515 0.39920511239200085 -1.0312308923348954 20.29635934120571 4.962213169267731 3.08251215557704 1.5756480024307487 -10.657404312384827 10.973139309811256 -7.90414810312274 -1.0959118176436944 -18.515441862035104 8.30001600662306 -2.277629379198471 -4.195179961340188 -3.310068948201444 -2.144399630243562 -4.440303072011633 4.324937307859361 -4.7484906782494996 -2.924612034003363 -5.570900066048894 -7.013480293422478 -1.184219957817328 4.209525692006995 0.6815828335111902 1.9365363913546436 -2.868793615703027 3.271122931288975 -10.62460852767957 -9.512951348671272 -17.895726631944644 -47.5383762088265 91.20136456475244 -72.65895284708432 120.76456333845287 -8.94120758292808 -7.852396149850042 7.9961226587681935 5.29190141745017e-08 6.839898384811161e-07 -5.203643899218124e-07 -4.137823794611498 -10.52949623318617 1.4173312107998668 -5.937078703908356 -3.4459493338880813 28.88040613326297 36.50978130855566 75.30852340808627 -74.67201095673052 -6.111199110068186 6.517416021775798 -6.626018511126181 -3.554920987478664e-07 -9.99001660276231e-07 5.690396011345763e-08
12.804400169304643 59.27939405601832 -31.829373525249288 -11.161835504324094 -52.13970856655386 -14.603754843255818 -9.003710017547903 2.5705900919311557 14.84449523482652 48.848568286200226 -6.756043555400386 -0.5623842288935653 -1.1569832967050022 9.902560047632683 -11.294584031857825 -15.984899485949226 -1.1963267384458653 14.831168512305526 -15.400158880492413 1.4843872887825431 -0.6706872848554805 31.48676027339521 5.761427674998042 3.2816401214364537 -0.8409712640943463 -10.41956478483795 9.296583540054346 -9.926216337879843 -1.4311029673712963 -17.69820248434811 9.637363572023387 -1.8959163165337332 -4.008654681494235 -4.368915029704071 -1.7847172351096536 -4.263836055813682 3.7600053347381466 -4.321470578402732 -3.0278006986619683 -9.270798399661281 -5.842232963356207 -1.8877014300658028 3.4138239621839483 0.7815696717973095 0.7497901387858579 -2.3643771925361756 5.197165208921973 -13.122821725534873 -8.423674054725117 -15.342502393128882 -48.57205857910318 70.0164546377878 -74.20889096082098 100.5645459422602 -8.931485165614578 -6.539590360246339 7.7401904659910725 -4.887079337975761e-07 7.624195204545856e-07 1.6110724645688722e-07 -4.216100934773932 -11.594411919427165 4.515588525182437 -6.292060325475938 -2.351569870956681 31.77324952862946 24.022957782200447 74.22248014906536 -65.20605987603851 -6.817416384895583 5.329437272691336 -6.894127354055199 -3.039608755040967e-07 -9.94010133809188e-07 4.6253547058359235e-07
6.961142225787665 58.627934743490286 -29.298312654549992 -14.649179139165614 -60.44436354126371 -17.053890943958468 -12.067991017656551 0.5785183164950163 14.61735762320522 60.25082353970511 -7.000253737922638 -0.4953524337933372 -2.5367865323256327 9.711012348470256 -10.23433333512351 -17.720928851332918 -1.1796448215780462 14.374542179170513 -17.143841944416597 2.2847847400768266 0.009010050398801131 40.44256321834614 6.226838612243297 3.3221943058508843 -2.8828083348447637 -10.137462101346973 7.782573609039827 -11.48648235559357 -1.5702949785916425 -16.860801669604676 10.762691837260691 -1.4883258665358106 -3.6507772537482523 -5.178043166943732 -1.3612312212801936 -4.000439272592531 3.2190387797083218 -3.7352889219336456 -3.029622518563522 -12.415291164211407 -4.697735183394948 -2.335471284294571 2.759450000671598 0.94101830456168 -0.28838909037549754 -1.896761206375615 6.496688889913079 -15.274049494079453 -7.194975637832764 -13.314236453364225 -49.79044389498739 50.56991218600726 -73.52671614846909 81.3878852951084 -8.958457040941099 -5.5362173059354784 7.546478205761256 -8.264790678971169e-07 7.472278963590725e-07 7.29394450979226e-07 -4.306546437723171 -11.760996485715692 7.068692650212791 -6.660268349300983 -0.5768259527102153 34.394818370874134 14.602421643176262 72.55757567923727 -57.51727896598695 -7.2030303443454144 4.429524029540075 -7.188641344107208 -2.366576869886946e-07 -9.293707050911316e-07 7.066988049324606e-07
3.016573459555662 58.46065226850889 -29.065695866846497 -18.368723692308006 -67.64328566153517 -20.32925090138173 -13.567476047714303 -0.8560506216069641 12.889180799016167 65.51162038378621 -6.971628894217711 -0.6180329407458602 -3.25597214621379 9.594947429862563 -9.361644567960623 -18.363696604259825 -1.0070313435315261 13.568134778874825 -17.848851381420307 2.614238162992625 1.1505354395637883 43.59481440834397 6.175496197608714 3.2974957477084654 -3.803527165728284 -10.031768032266632 6.959835826148074 -11.771925016775514 -1.3353561427596412 -16.394585886263766 11.477348067676811 -1.2703270386267227 -3.147717091290591 -5.698268308787142 -1.017874820054214 -3.7658146971783992 2.802705686459583 -3.206744982655747 -2.9036746876073467 -14.420753694060634 -4.083541448916495 -2.536954960732765 2.1505351835416056 1.216883814057175 -0.8111834151013566 -1.9593108680661542 6.774770097515681 -16.388704630220413 -6.747803011754357 -12.57438400681167 -50.80425692852095 41.39381649586011 -72.54496712207163 72.68788530735473 -9.228153146404289 -5.230016002472763 7.6499379599781925 -7.110115918709056e-07 6.221876929322393e-07 9.202990157407343e-07 -4.733872661343623 -11.090262966694965 7.988710957494248 -7.455407238822362 0.8366025158717989 35.04467630589155 6.387392831835431 70.47137419370509 -50.32045161374291 -7.056231834403076 4.020235978253921 -7.511202703366315 -9.942611732789586e-08 -9.117236072212176e-07 6.408820833596088e-07
1.8282191234475338 59.20785252947548 -30.204922317928364 -22.90789757734169 -73.74973514448813 -25.016018168983123 -13.529433306784252 -1.6651158800153303 9.928387619914062 64.63803389314056 -6.694471921007691 -0.9305571002037516 -3.2279729648668765 9.587872199347109 -8.81253172515148 -17.87130039863286 -0.7268395444800122 12.502395846229106 -17.441621565450806 2.4877963644004906 2.6757754818812858 40.63215106009445 5.649339012584891 3.2224784145903116 -3.5077727115049653 -10.181014116538055 6.911497473485665 -10.706811053029739 -0.7251523833489517 -16.38921896717485 11.77493136758189 -1.2684609194965237 -2.5482625064518114 -5.9483308075885475 -0.7953800625022233 -3.6121572546716156 2.53346081846816 -2.8009440535816443 -2.670484437377702 -15.21698428115868 -4.109375729261366 -2.5467560513817333 1.5658450297514823 1.5885868952758493 -0.7581341879991128 -2.6950246024796205 6.080858194159771 -16.320105112550074 -7.379867965770017 -13.135291459349448 -51.40722051126479 41.807440625623705 -72.83498477694677 74.21743103247 -9.768825800990117 -5.675135699104527 8.122439539908292 -1.5384878197746066e-07 4.023562870145843e-07 6.982616712315443e-07 -5.530862831791434 -9.725862292499068 7.135591320636092 -8.727605412187163 1.5899782607082162 33.39828166414703 -0.4507138715008915 68.25941177094487 -44.1363222583322 -6.403316743215715 4.1226041112944225 -7.889170014053773 1.0510598056538522e-07 -9.616830442656185e-07 2.6339809164167606e-07
2.603730502026359 60.20624668595214 -31.507897305844175 -31.807749692564446 -78.93064452066002 -34.33990582413597 -12.940381867115551 -2.252006981543912 6.442013172453693 60.45061710107 -6.236511468834252 -1.3551504603341118 -2.7150304816338235 9.633957166917694 -8.516894652863224 -16.78236623552535 -0.3881621961581623 11.442613514316944 -16.09849860117994 2.1158833269060784 4.282166710992275 34.336146720607054 4.903856501926516 3.014161139066711 -2.5656411458524517 -10.463662340400655 7.272593428710588 -8.986929719475087 0.04764039886616646 -16.612354146184583 11.845117248648966 -1.3062077503832539 -1.934391375809476 -6.01023219031207 -0.6293152905360776 -3.5208263615095525 2.3526263889272787 -2.423262797041009 -2.394450824468449 -15.25405214052695 -4.4708050179658425 -2.405427468393901 1.0652906442288224 1.9604457553917036 -0.39322541979162384 -3.845721362892771 4.898580679127213 -15.499229214091152 -8.694182157544411 -14.273801492124324 -51.62920238032868 49.67973831164306 -73.93220555604498 83.76731999809107 -10.416878763035825 -6.573823681585139 8.864861837949155 5.592575854629753e-07 1.3566824778294362e-07 2.6800093788924015e-07 -6.461264235307154 -7.901935752228707 5.34424137706975 -10.295605545737033 2.156590251094017 30.59968458488998 -4.7529530219427 66.68492506378865 -40.24755719596309 -5.522735877774987 4.569754855287447 -8.379112063405907 3.146358843485024e-07 -1.0094580393108263e-06 -2.731416169742087e-07
